<svg width="78" height="42" viewBox="0 0 78 42" fill="none" xmlns="http://www.w3.org/2000/svg">
<mask id="mask0_0_1" style="mask-type:alpha" maskUnits="userSpaceOnUse" x="36" y="0" width="42" height="42">
<rect x="36" width="42" height="42" fill="#D9D9D9"/>
</mask>
<g mask="url(#mask0_0_1)">
<path d="M51.4877 31.1938L57.0002 27.8687L62.5127 31.2375L61.069 24.9375L65.9252 20.7375L59.5377 20.1688L57.0002 14.2188L54.4627 20.125L48.0752 20.6937L52.9315 24.9375L51.4877 31.1938ZM46.194 38.5L49.0377 26.2063L39.5002 17.9375L52.1002 16.8438L57.0002 5.25L61.9002 16.8438L74.5002 17.9375L64.9627 26.2063L67.8065 38.5L57.0002 31.9813L46.194 38.5Z" fill="#30107A"/>
</g>
<mask id="mask1_0_1" style="mask-type:alpha" maskUnits="userSpaceOnUse" x="0" y="0" width="42" height="42">
<rect width="42" height="42" fill="#D9D9D9"/>
</mask>
<g mask="url(#mask1_0_1)">
<path d="M15.4877 31.1938L21.0002 27.8687L26.5127 31.2375L25.069 24.9375L29.9252 20.7375L23.5377 20.1688L21.0002 14.2188L18.4627 20.125L12.0752 20.6937L16.9315 24.9375L15.4877 31.1938ZM10.194 38.5L13.0377 26.2063L3.50024 17.9375L16.1002 16.8438L21.0002 5.25L25.9002 16.8438L38.5002 17.9375L28.9627 26.2063L31.8065 38.5L21.0002 31.9813L10.194 38.5Z" fill="#30107A"/>
</g>
</svg>
