<svg width="186" height="42" viewBox="0 0 186 42" fill="none" xmlns="http://www.w3.org/2000/svg">
<mask id="mask0_0_1" style="mask-type:alpha" maskUnits="userSpaceOnUse" x="36" y="0" width="42" height="42">
<rect x="36" width="42" height="42" fill="#D9D9D9"/>
</mask>
<g mask="url(#mask0_0_1)">
<path d="M51.4877 31.1938L57.0002 27.8687L62.5127 31.2375L61.069 24.9375L65.9252 20.7375L59.5377 20.1688L57.0002 14.2188L54.4627 20.125L48.0752 20.6937L52.9315 24.9375L51.4877 31.1938ZM46.194 38.5L49.0377 26.2063L39.5002 17.9375L52.1002 16.8438L57.0002 5.25L61.9002 16.8438L74.5002 17.9375L64.9627 26.2063L67.8065 38.5L57.0002 31.9813L46.194 38.5Z" fill="#30107A"/>
</g>
<mask id="mask1_0_1" style="mask-type:alpha" maskUnits="userSpaceOnUse" x="0" y="0" width="42" height="42">
<rect width="42" height="42" fill="#D9D9D9"/>
</mask>
<g mask="url(#mask1_0_1)">
<path d="M15.4877 31.1938L21.0002 27.8687L26.5127 31.2375L25.069 24.9375L29.9252 20.7375L23.5377 20.1688L21.0002 14.2188L18.4627 20.125L12.0752 20.6937L16.9315 24.9375L15.4877 31.1938ZM10.194 38.5L13.0377 26.2063L3.50024 17.9375L16.1002 16.8438L21.0002 5.25L25.9002 16.8438L38.5002 17.9375L28.9627 26.2063L31.8065 38.5L21.0002 31.9813L10.194 38.5Z" fill="#30107A"/>
</g>
<mask id="mask2_0_1" style="mask-type:alpha" maskUnits="userSpaceOnUse" x="72" y="0" width="42" height="42">
<rect x="72" width="42" height="42" fill="#D9D9D9"/>
</mask>
<g mask="url(#mask2_0_1)">
<path d="M87.4877 31.1938L93.0002 27.8687L98.5127 31.2375L97.069 24.9375L101.925 20.7375L95.5377 20.1688L93.0002 14.2188L90.4627 20.125L84.0752 20.6937L88.9315 24.9375L87.4877 31.1938ZM82.194 38.5L85.0377 26.2063L75.5002 17.9375L88.1002 16.8438L93.0002 5.25L97.9002 16.8438L110.5 17.9375L100.963 26.2063L103.806 38.5L93.0002 31.9813L82.194 38.5Z" fill="#30107A"/>
</g>
<mask id="mask3_0_1" style="mask-type:alpha" maskUnits="userSpaceOnUse" x="108" y="0" width="42" height="42">
<rect x="108" width="42" height="42" fill="#D9D9D9"/>
</mask>
<g mask="url(#mask3_0_1)">
<path d="M123.488 31.1938L129 27.8687L134.513 31.2375L133.069 24.9375L137.925 20.7375L131.538 20.1688L129 14.2188L126.463 20.125L120.075 20.6937L124.931 24.9375L123.488 31.1938ZM118.194 38.5L121.038 26.2063L111.5 17.9375L124.1 16.8438L129 5.25L133.9 16.8438L146.5 17.9375L136.963 26.2063L139.806 38.5L129 31.9813L118.194 38.5Z" fill="#30107A"/>
</g>
<mask id="mask4_0_1" style="mask-type:alpha" maskUnits="userSpaceOnUse" x="144" y="0" width="42" height="42">
<rect x="144" width="42" height="42" fill="#D9D9D9"/>
</mask>
<g mask="url(#mask4_0_1)">
<path d="M159.488 31.1938L165 27.8687L170.513 31.2375L169.069 24.9375L173.925 20.7375L167.538 20.1688L165 14.2188L162.463 20.125L156.075 20.6937L160.931 24.9375L159.488 31.1938ZM154.194 38.5L157.038 26.2063L147.5 17.9375L160.1 16.8438L165 5.25L169.9 16.8438L182.5 17.9375L172.963 26.2063L175.806 38.5L165 31.9813L154.194 38.5Z" fill="#30107A"/>
</g>
</svg>