<svg width="65" height="65" viewBox="0 0 65 65" fill="none" xmlns="http://www.w3.org/2000/svg">
<mask id="mask0_1241_171" style="mask-type:alpha" maskUnits="userSpaceOnUse" x="0" y="0" width="65" height="65">
<rect width="65" height="65" fill="#D9D9D9"/>
</mask>
<g mask="url(#mask0_1241_171)">
<path d="M32.4998 47.3958C35.8853 47.3958 38.7629 46.2109 41.1327 43.8411C43.5024 41.4714 44.6873 38.5938 44.6873 35.2083C44.6873 31.8229 43.5024 28.9453 41.1327 26.5755C38.7629 24.2057 35.8853 23.0208 32.4998 23.0208C29.1144 23.0208 26.2368 24.2057 23.867 26.5755C21.4972 28.9453 20.3123 31.8229 20.3123 35.2083C20.3123 38.5938 21.4972 41.4714 23.867 43.8411C26.2368 46.2109 29.1144 47.3958 32.4998 47.3958ZM32.4998 41.9792C30.604 41.9792 29.0016 41.3247 27.6925 40.0156C26.3835 38.7066 25.729 37.1042 25.729 35.2083C25.729 33.3125 26.3835 31.7101 27.6925 30.401C29.0016 29.092 30.604 28.4375 32.4998 28.4375C34.3957 28.4375 35.9981 29.092 37.3071 30.401C38.6162 31.7101 39.2707 33.3125 39.2707 35.2083C39.2707 37.1042 38.6162 38.7066 37.3071 40.0156C35.9981 41.3247 34.3957 41.9792 32.4998 41.9792ZM10.8332 56.875C9.34359 56.875 8.06841 56.3446 7.00765 55.2839C5.94689 54.2231 5.4165 52.9479 5.4165 51.4583V18.9583C5.4165 17.4688 5.94689 16.1936 7.00765 15.1328C8.06841 14.072 9.34359 13.5417 10.8332 13.5417H19.3644L24.3748 8.125H40.6248L45.6353 13.5417H54.1665C55.6561 13.5417 56.9313 14.072 57.992 15.1328C59.0528 16.1936 59.5832 17.4688 59.5832 18.9583V51.4583C59.5832 52.9479 59.0528 54.2231 57.992 55.2839C56.9313 56.3446 55.6561 56.875 54.1665 56.875H10.8332ZM10.8332 51.4583H54.1665V18.9583H43.1978L38.255 13.5417H26.7446L21.8019 18.9583H10.8332V51.4583Z" fill="#8E918F"/>
</g>
</svg>
