<svg width="24" height="25" viewBox="0 0 24 25" fill="none" xmlns="http://www.w3.org/2000/svg">
<mask id="mask0_1505_20" style="mask-type:alpha" maskUnits="userSpaceOnUse" x="-1" y="0" width="25" height="25">
<rect x="-0.00292969" y="0.779297" width="24" height="24" fill="#D9D9D9"/>
</mask>
<g mask="url(#mask0_1505_20)">
<path d="M10.9971 17.7793H12.9971V11.7793H10.9971V17.7793ZM11.9971 9.7793C12.2804 9.7793 12.5179 9.68346 12.7096 9.4918C12.9012 9.30013 12.9971 9.06263 12.9971 8.7793C12.9971 8.49596 12.9012 8.25846 12.7096 8.0668C12.5179 7.87513 12.2804 7.7793 11.9971 7.7793C11.7137 7.7793 11.4762 7.87513 11.2846 8.0668C11.0929 8.25846 10.9971 8.49596 10.9971 8.7793C10.9971 9.06263 11.0929 9.30013 11.2846 9.4918C11.4762 9.68346 11.7137 9.7793 11.9971 9.7793ZM11.9971 22.7793C10.6137 22.7793 9.31374 22.5168 8.09707 21.9918C6.8804 21.4668 5.82207 20.7543 4.92207 19.8543C4.02207 18.9543 3.30957 17.896 2.78457 16.6793C2.25957 15.4626 1.99707 14.1626 1.99707 12.7793C1.99707 11.396 2.25957 10.096 2.78457 8.8793C3.30957 7.66263 4.02207 6.6043 4.92207 5.7043C5.82207 4.8043 6.8804 4.0918 8.09707 3.5668C9.31374 3.0418 10.6137 2.7793 11.9971 2.7793C13.3804 2.7793 14.6804 3.0418 15.8971 3.5668C17.1137 4.0918 18.1721 4.8043 19.0721 5.7043C19.9721 6.6043 20.6846 7.66263 21.2096 8.8793C21.7346 10.096 21.9971 11.396 21.9971 12.7793C21.9971 14.1626 21.7346 15.4626 21.2096 16.6793C20.6846 17.896 19.9721 18.9543 19.0721 19.8543C18.1721 20.7543 17.1137 21.4668 15.8971 21.9918C14.6804 22.5168 13.3804 22.7793 11.9971 22.7793ZM11.9971 20.7793C14.2304 20.7793 16.1221 20.0043 17.6721 18.4543C19.2221 16.9043 19.9971 15.0126 19.9971 12.7793C19.9971 10.546 19.2221 8.6543 17.6721 7.1043C16.1221 5.5543 14.2304 4.7793 11.9971 4.7793C9.76374 4.7793 7.87207 5.5543 6.32207 7.1043C4.77207 8.6543 3.99707 10.546 3.99707 12.7793C3.99707 15.0126 4.77207 16.9043 6.32207 18.4543C7.87207 20.0043 9.76374 20.7793 11.9971 20.7793Z" fill="#8E918F"/>
</g>
</svg>