<svg xmlns="http://www.w3.org/2000/svg" width="834" height="346" viewBox="0 0 834 346">
  <defs>
    <style>
      .cls-1 {
        fill: #fff;
        fill-rule: evenodd;
      }
    </style>
  </defs>
  <path id="Color_Fill_1" data-name="Color Fill 1" class="cls-1" d="M299.932,142.161c15.838-.245,28.359.949,39.988,4,0.281,6.19,1.526,19.061-1.6,22.393-13.045,1.758-38.6-9.856-48.784,4.8-2.927,4.21-2.471,14.916-1.6,19.994,4.892,28.519,28.354,20.824,51.984,16v22.393c-1.633,1.439-.565.012-1.6,2.4-10.512.415-25.589,6.345-38.388,2.4-24.043-7.413-49.218-36.223-32.789-69.578q8-9.2,16-18.394C287.757,145.7,296.9,146.533,299.932,142.161Zm96.77,23.192v13.6H433.49v20.794c-8.531-.262-31.021-2.928-35.988,1.6q-0.4,6-.8,12l45.586,0.8q-0.4,11.2-.8,22.393l-68.779-.8q0.4-45.58.8-91.171l1.6-2.4h66.379v23.192H396.7ZM499.07,213.338h44.786q-0.4,11.6-.8,23.193l-66.379-.8-2.4-1.6V144.56c5.507-2.034,13.664-2.557,22.393-2.4C502.9,159.622,499.215,191.53,499.07,213.338Zm99.968-47.985v13.6l37.589,0.8c0.287,5.647,1.2,16.239-1.6,19.194-8.272,3.02-28.206-3.085-34.389,2.4h-1.6q-0.4,17.593-.8,35.189l-22.393-.8q0.4-46.78.8-93.57l68.779,0.8q-0.4,11.2-.8,22.393H599.038Zm80.775-23.192h19.994c4.885,11.476,5.532,80.676.8,93.57l-1.6.8-19.194-.8-2.4-1.6q0.4-45.582.8-91.172Zm52.784,0h23.992c3.674,6.052,13.207,23.238,20.794,24.792,1.636-10.643,11.076-15.439,14.395-24.792l26.392,0.8v0.8c-5.539,16.588-21.182,28.835-28.791,44.786,9.025,16.5,22.813,29.657,30.39,47.185l-25.592.8c-3.74-6.281-13.135-24.665-20.793-26.392v1.6L754.99,236.531l-24.793-.8v-4c4.747-2.243,28.951-37.8,30.391-43.987C753,173.754,734.655,159.542,732.6,142.161Z"/>
  <path id="Color_Fill_1_copy" data-name="Color Fill 1 copy" class="cls-1" d="M111.769,72.347c71.3-.826,95.4,15.54,114.808,67.167,4.06,10.8,5.015,28.636,0,39.832-7.51,16.767,11.856,38.393,10.154,39.831q-1.172,2.343-2.343,4.686l-6.249-.781c-5.658-9.521-10.48-15.318-13.277-29.678-3.016-15.485,8.654-38.491,1.562-55.452-6.831-16.339-16.447-31.447-29.678-41.393-31.753-23.87-96.178-13.332-121.057,7.81-10.5,8.924-18.722,25.336-25.773,37.488-3.723,6.417-1.685,18.058-7.81,21.869-1.607,2.452-.373,1.616-3.905,2.343l-4.686-3.905c1.253-37.462,33.9-68.123,60.138-82.007Zm1.562,32.022c46.367-.362,75.384,12.456,85.911,47.641q-1.171,31.629-2.343,63.262c5.993,16.556,16.745,19.182,28.116,29.679v3.905l-2.343.781c-10.991,9.442-31.059-18.123-34.364-24.211-10.6-19.521,6.688-50.106,0-71.073-5.977-18.735-18.8-29.221-36.708-35.926-37.637-14.093-69.121,9.187-79.663,31.24-5.017,10.5-4.553,25.868-11.715,34.365-6.334,7.515-36.425,22.243-40.613,1.562a7.888,7.888,0,0,0,4.686-3.905c7.341,1.549,19.493,5.035,23.43-2.343,9.261-6.061,14.039-37.294,21.868-47.642,5.924-7.83,16.416-17.832,25.773-21.868C101,107.408,109.08,108.172,113.331,104.369Zm3.905,29.678c48.813-.974,59.611,35.783,43.736,75.758-10.807,27.216-60.708,67.107-96.845,67.167-1.154-2.631-1.549-2.066-2.343-5.467,33.246-24.942,74.255-26.015,89.035-70.291,5.34-16,10.518-40.146-3.905-50.766-13.862-10.207-33.694-5.207-41.393,7.029-5.033,8-4.632,16.552-7.811,26.555-8.329,26.213-20.907,28.081-46.08,37.488-8.012,2.995-19.51,5.1-28.116,1.562v-7.81c22.511-2.164,48.342-5.669,57.795-21.087l15.62-44.518C102.414,142.2,111.006,140.458,117.236,134.047Zm12.5,28.117,5.467,3.905c0,52.8-45.321,84.084-95.283,86.692-1.248-1.752-1.914-2.1-3.905-3.124v-4.686c2.035-1.18,1.371-1.334,3.905-2.343l35.927-9.372c32.806-17.084,39.33-29.141,49.2-69.51C128.356,163.482,128.142,163.774,129.732,162.164Zm36.708,71.072c3.662-.108,5.342-0.144,7.029,1.562h0.781l12.5,22.649,17.182,11.715c1.057,2.912.493,2.235-.781,3.905-1.38,3.324-1.94,3.488-6.248,3.9-11.358-11.424-31.595-16.855-32.022-40.612Zm-36.708,33.583c22.145-.667,40.216,4.561,47.642,17.963,3.276,3.077.842,6.605-1.562,8.592-12.828-.946-17.727-12.3-28.117-16.4-18.563-7.333-38.447,17.522-54.671,17.964v-2.343c-1.623-1.581-1.066-.782-1.562-3.906,7.819-5.719,16.572-13.752,25.774-17.963C122.553,268.291,125.965,270.075,129.732,266.819Zm5.467,27.336c5.467-.294,12.925-0.34,15.62,2.343,2.971,1.24,2.945,1.491,3.905,4.686-4.193,2.25-4.548,3.865-11.715,3.9-2.817,2.548-7.77.439-13.277,0l-3.905-5.467q0.39-1.563.781-3.124h2.343C130.407,295.083,133.164,295.031,135.2,294.155Z"/>
</svg>
