<svg width="190" height="112" viewBox="0 0 190 112" fill="none" xmlns="http://www.w3.org/2000/svg">
<mask id="mask0_0_1" style="mask-type:alpha" maskUnits="userSpaceOnUse" x="110" y="10" width="80" height="80">
<rect x="110" y="10" width="80" height="80" fill="#D9D9D9"/>
</mask>
<g mask="url(#mask0_0_1)">
<path d="M126.667 83.3335C124.833 83.3335 123.264 82.6807 121.958 81.3752C120.653 80.0696 120 78.5002 120 76.6668V36.6668C120 34.8335 120.653 33.2641 121.958 31.9585C123.264 30.6529 124.833 30.0002 126.667 30.0002H133.333C133.333 25.3891 134.958 21.4585 138.208 18.2085C141.458 14.9585 145.389 13.3335 150 13.3335C154.611 13.3335 158.542 14.9585 161.792 18.2085C165.042 21.4585 166.667 25.3891 166.667 30.0002H173.333C175.167 30.0002 176.736 30.6529 178.042 31.9585C179.347 33.2641 180 34.8335 180 36.6668V76.6668C180 78.5002 179.347 80.0696 178.042 81.3752C176.736 82.6807 175.167 83.3335 173.333 83.3335H126.667ZM126.667 76.6668H173.333V36.6668H126.667V76.6668ZM150 56.6668C154.611 56.6668 158.542 55.0418 161.792 51.7918C165.042 48.5418 166.667 44.6113 166.667 40.0002H160C160 42.7779 159.028 45.1391 157.083 47.0835C155.139 49.0279 152.778 50.0002 150 50.0002C147.222 50.0002 144.861 49.0279 142.917 47.0835C140.972 45.1391 140 42.7779 140 40.0002H133.333C133.333 44.6113 134.958 48.5418 138.208 51.7918C141.458 55.0418 145.389 56.6668 150 56.6668ZM140 30.0002H160C160 27.2224 159.028 24.8613 157.083 22.9168C155.139 20.9724 152.778 20.0002 150 20.0002C147.222 20.0002 144.861 20.9724 142.917 22.9168C140.972 24.8613 140 27.2224 140 30.0002Z" fill="url(#paint0_linear_0_1)" fill-opacity="0.8"/>
</g>
<mask id="mask1_0_1" style="mask-type:alpha" maskUnits="userSpaceOnUse" x="0" y="10" width="80" height="80">
<rect y="10" width="80" height="80" fill="#D9D9D9"/>
</mask>
<g mask="url(#mask1_0_1)">
<path d="M16.6667 83.3335C14.8333 83.3335 13.2639 82.6807 11.9583 81.3752C10.6528 80.0696 10 78.5002 10 76.6668V36.6668C10 34.8335 10.6528 33.2641 11.9583 31.9585C13.2639 30.6529 14.8333 30.0002 16.6667 30.0002H23.3333C23.3333 25.3891 24.9583 21.4585 28.2083 18.2085C31.4583 14.9585 35.3889 13.3335 40 13.3335C44.6111 13.3335 48.5417 14.9585 51.7917 18.2085C55.0417 21.4585 56.6667 25.3891 56.6667 30.0002H63.3333C65.1667 30.0002 66.7361 30.6529 68.0417 31.9585C69.3472 33.2641 70 34.8335 70 36.6668V76.6668C70 78.5002 69.3472 80.0696 68.0417 81.3752C66.7361 82.6807 65.1667 83.3335 63.3333 83.3335H16.6667ZM16.6667 76.6668H63.3333V36.6668H16.6667V76.6668ZM40 56.6668C44.6111 56.6668 48.5417 55.0418 51.7917 51.7918C55.0417 48.5418 56.6667 44.6113 56.6667 40.0002H50C50 42.7779 49.0278 45.1391 47.0833 47.0835C45.1389 49.0279 42.7778 50.0002 40 50.0002C37.2222 50.0002 34.8611 49.0279 32.9167 47.0835C30.9722 45.1391 30 42.7779 30 40.0002H23.3333C23.3333 44.6113 24.9583 48.5418 28.2083 51.7918C31.4583 55.0418 35.3889 56.6668 40 56.6668ZM30 30.0002H50C50 27.2224 49.0278 24.8613 47.0833 22.9168C45.1389 20.9724 42.7778 20.0002 40 20.0002C37.2222 20.0002 34.8611 20.9724 32.9167 22.9168C30.9722 24.8613 30 27.2224 30 30.0002Z" fill="url(#paint1_linear_0_1)" fill-opacity="0.8"/>
</g>
<rect x="58" y="5" width="75" height="98" fill="#F4F4F4"/>
<mask id="mask2_0_1" style="mask-type:alpha" maskUnits="userSpaceOnUse" x="40" y="0" width="112" height="112">
<rect x="40" width="112" height="112" fill="#D9D9D9"/>
</mask>
<g mask="url(#mask2_0_1)">
<path d="M63.3333 102.667C60.7667 102.667 58.5694 101.753 56.7417 99.9253C54.9139 98.0975 54 95.9003 54 93.3337V37.3337C54 34.767 54.9139 32.5698 56.7417 30.742C58.5694 28.9142 60.7667 28.0003 63.3333 28.0003H72.6667C72.6667 21.5448 74.9417 16.042 79.4917 11.492C84.0417 6.94199 89.5444 4.66699 96 4.66699C102.456 4.66699 107.958 6.94199 112.508 11.492C117.058 16.042 119.333 21.5448 119.333 28.0003H128.667C131.233 28.0003 133.431 28.9142 135.258 30.742C137.086 32.5698 138 34.767 138 37.3337V93.3337C138 95.9003 137.086 98.0975 135.258 99.9253C133.431 101.753 131.233 102.667 128.667 102.667H63.3333ZM63.3333 93.3337H128.667V37.3337H63.3333V93.3337ZM96 65.3337C102.456 65.3337 107.958 63.0587 112.508 58.5087C117.058 53.9587 119.333 48.4559 119.333 42.0003H110C110 45.8892 108.639 49.1948 105.917 51.917C103.194 54.6392 99.8889 56.0003 96 56.0003C92.1111 56.0003 88.8056 54.6392 86.0833 51.917C83.3611 49.1948 82 45.8892 82 42.0003H72.6667C72.6667 48.4559 74.9417 53.9587 79.4917 58.5087C84.0417 63.0587 89.5444 65.3337 96 65.3337ZM82 28.0003H110C110 24.1114 108.639 20.8059 105.917 18.0837C103.194 15.3614 99.8889 14.0003 96 14.0003C92.1111 14.0003 88.8056 15.3614 86.0833 18.0837C83.3611 20.8059 82 24.1114 82 28.0003Z" fill="url(#paint2_linear_0_1)"/>
</g>
<defs>
<linearGradient id="paint0_linear_0_1" x1="150" y1="78.9285" x2="150" y2="18.9285" gradientUnits="userSpaceOnUse">
<stop stop-color="#30107A"/>
<stop offset="1" stop-color="#A739C0"/>
</linearGradient>
<linearGradient id="paint1_linear_0_1" x1="40" y1="78.9285" x2="40" y2="18.9285" gradientUnits="userSpaceOnUse">
<stop stop-color="#30107A"/>
<stop offset="1" stop-color="#A739C0"/>
</linearGradient>
<linearGradient id="paint2_linear_0_1" x1="96" y1="96.5" x2="96" y2="12.5" gradientUnits="userSpaceOnUse">
<stop stop-color="#30107A"/>
<stop offset="1" stop-color="#A739C0"/>
</linearGradient>
</defs>
</svg>