<svg width="24" height="25" viewBox="0 0 24 25" fill="none" xmlns="http://www.w3.org/2000/svg">
<mask id="mask0_1505_14" style="mask-type:alpha" maskUnits="userSpaceOnUse" x="-1" y="0" width="25" height="25">
<rect x="-0.00292969" y="0.779297" width="24" height="24" fill="#D9D9D9"/>
</mask>
<g mask="url(#mask0_1505_14)">
<path d="M11.9471 18.7793C12.2971 18.7793 12.5929 18.6585 12.8346 18.4168C13.0762 18.1751 13.1971 17.8793 13.1971 17.5293C13.1971 17.1793 13.0762 16.8835 12.8346 16.6418C12.5929 16.4001 12.2971 16.2793 11.9471 16.2793C11.5971 16.2793 11.3012 16.4001 11.0596 16.6418C10.8179 16.8835 10.6971 17.1793 10.6971 17.5293C10.6971 17.8793 10.8179 18.1751 11.0596 18.4168C11.3012 18.6585 11.5971 18.7793 11.9471 18.7793ZM11.0471 14.9293H12.8971C12.8971 14.3793 12.9596 13.946 13.0846 13.6293C13.2096 13.3126 13.5637 12.8793 14.1471 12.3293C14.5804 11.896 14.9221 11.4835 15.1721 11.0918C15.4221 10.7001 15.5471 10.2293 15.5471 9.6793C15.5471 8.74596 15.2054 8.0293 14.5221 7.5293C13.8387 7.0293 13.0304 6.7793 12.0971 6.7793C11.1471 6.7793 10.3762 7.0293 9.78457 7.5293C9.1929 8.0293 8.7804 8.6293 8.54707 9.3293L10.1971 9.9793C10.2804 9.6793 10.4679 9.3543 10.7596 9.0043C11.0512 8.6543 11.4971 8.4793 12.0971 8.4793C12.6304 8.4793 13.0304 8.62513 13.2971 8.9168C13.5637 9.20846 13.6971 9.5293 13.6971 9.8793C13.6971 10.2126 13.5971 10.5251 13.3971 10.8168C13.1971 11.1085 12.9471 11.3793 12.6471 11.6293C11.9137 12.2793 11.4637 12.771 11.2971 13.1043C11.1304 13.4376 11.0471 14.046 11.0471 14.9293ZM11.9971 22.7793C10.6137 22.7793 9.31374 22.5168 8.09707 21.9918C6.8804 21.4668 5.82207 20.7543 4.92207 19.8543C4.02207 18.9543 3.30957 17.896 2.78457 16.6793C2.25957 15.4626 1.99707 14.1626 1.99707 12.7793C1.99707 11.396 2.25957 10.096 2.78457 8.8793C3.30957 7.66263 4.02207 6.6043 4.92207 5.7043C5.82207 4.8043 6.8804 4.0918 8.09707 3.5668C9.31374 3.0418 10.6137 2.7793 11.9971 2.7793C13.3804 2.7793 14.6804 3.0418 15.8971 3.5668C17.1137 4.0918 18.1721 4.8043 19.0721 5.7043C19.9721 6.6043 20.6846 7.66263 21.2096 8.8793C21.7346 10.096 21.9971 11.396 21.9971 12.7793C21.9971 14.1626 21.7346 15.4626 21.2096 16.6793C20.6846 17.896 19.9721 18.9543 19.0721 19.8543C18.1721 20.7543 17.1137 21.4668 15.8971 21.9918C14.6804 22.5168 13.3804 22.7793 11.9971 22.7793ZM11.9971 20.7793C14.2304 20.7793 16.1221 20.0043 17.6721 18.4543C19.2221 16.9043 19.9971 15.0126 19.9971 12.7793C19.9971 10.546 19.2221 8.6543 17.6721 7.1043C16.1221 5.5543 14.2304 4.7793 11.9971 4.7793C9.76374 4.7793 7.87207 5.5543 6.32207 7.1043C4.77207 8.6543 3.99707 10.546 3.99707 12.7793C3.99707 15.0126 4.77207 16.9043 6.32207 18.4543C7.87207 20.0043 9.76374 20.7793 11.9971 20.7793Z" fill="#8E918F"/>
</g>
</svg>