<svg width="112" height="112" viewBox="0 0 112 112" fill="none" xmlns="http://www.w3.org/2000/svg">
<mask id="mask0_742_360" style="mask-type:alpha" maskUnits="userSpaceOnUse" x="0" y="0" width="112" height="112">
<rect width="112" height="112" fill="#D9D9D9"/>
</mask>
<g mask="url(#mask0_742_360)">
<path d="M80.0333 96.6L51.8 68.1333C50.2444 68.7556 48.6694 69.2222 47.075 69.5333C45.4806 69.8444 43.7889 70 42 70C34.2222 70 27.6111 67.2778 22.1667 61.8333C16.7222 56.3889 14 49.7778 14 42C14 39.2 14.3889 36.5361 15.1667 34.0083C15.9444 31.4806 17.0333 29.0889 18.4333 26.8333L35.4667 43.8667L43.8667 35.4667L26.8333 18.4333C29.0889 17.0333 31.4806 15.9444 34.0083 15.1667C36.5361 14.3889 39.2 14 42 14C49.7778 14 56.3889 16.7222 61.8333 22.1667C67.2778 27.6111 70 34.2222 70 42C70 43.7889 69.8444 45.4806 69.5333 47.075C69.2222 48.6694 68.7556 50.2444 68.1333 51.8L96.6 80.0333C97.5333 80.9667 98 82.0944 98 83.4167C98 84.7389 97.5333 85.8667 96.6 86.8L86.8 96.6C85.8667 97.5333 84.7389 98 83.4167 98C82.0944 98 80.9667 97.5333 80.0333 96.6ZM83.4167 86.6833L86.5667 83.5333L56.7 53.6667C58.1 52.1111 59.1111 50.3028 59.7333 48.2417C60.3556 46.1806 60.6667 44.1 60.6667 42C60.6667 37.3333 59.1694 33.2694 56.175 29.8083C53.1806 26.3472 49.4667 24.2667 45.0333 23.5667L53.6667 32.2C54.6 33.1333 55.0667 34.2222 55.0667 35.4667C55.0667 36.7111 54.6 37.8 53.6667 38.7333L38.7333 53.6667C37.8 54.6 36.7111 55.0667 35.4667 55.0667C34.2222 55.0667 33.1333 54.6 32.2 53.6667L23.5667 45.0333C24.2667 49.4667 26.3472 53.1806 29.8083 56.175C33.2694 59.1694 37.3333 60.6667 42 60.6667C44.0222 60.6667 46.0444 60.3556 48.0667 59.7333C50.0889 59.1111 51.9167 58.1389 53.55 56.8167L83.4167 86.6833Z" fill="url(#paint0_linear_742_360)"/>
</g>
<defs>
<linearGradient id="paint0_linear_742_360" x1="56" y1="14" x2="56" y2="98" gradientUnits="userSpaceOnUse">
<stop stop-color="#A739C0"/>
<stop offset="1" stop-color="#30107A"/>
</linearGradient>
</defs>
</svg>