<svg width="28" height="30" viewBox="0 0 28 30" fill="none" xmlns="http://www.w3.org/2000/svg">
<mask id="mask0_742_379" style="mask-type:alpha" maskUnits="userSpaceOnUse" x="0" y="0" width="28" height="30">
<rect y="0.47168" width="28" height="29.1007" fill="#D9D9D9"/>
</mask>
<g mask="url(#mask0_742_379)">
<path d="M14 19.8719L18.6667 15.0218L14 10.1717L12.3667 11.8692L14.2334 13.8093H9.33337V16.2343H14.2334L12.3667 18.1744L14 19.8719ZM14 27.1471C12.3862 27.1471 10.8695 26.8288 9.45004 26.1922C8.0306 25.5557 6.79587 24.6917 5.74587 23.6004C4.69587 22.5092 3.86462 21.2259 3.25212 19.7507C2.63962 18.2754 2.33337 16.6991 2.33337 15.0218C2.33337 13.3445 2.63962 11.7682 3.25212 10.2929C3.86462 8.81768 4.69587 7.53441 5.74587 6.44314C6.79587 5.35186 8.0306 4.48793 9.45004 3.85135C10.8695 3.21477 12.3862 2.89648 14 2.89648C15.6139 2.89648 17.1306 3.21477 18.55 3.85135C19.9695 4.48793 21.2042 5.35186 22.2542 6.44314C23.3042 7.53441 24.1355 8.81768 24.748 10.2929C25.3605 11.7682 25.6667 13.3445 25.6667 15.0218C25.6667 16.6991 25.3605 18.2754 24.748 19.7507C24.1355 21.2259 23.3042 22.5092 22.2542 23.6004C21.2042 24.6917 19.9695 25.5557 18.55 26.1922C17.1306 26.8288 15.6139 27.1471 14 27.1471ZM14 24.722C16.6056 24.722 18.8125 23.7823 20.6209 21.9029C22.4292 20.0235 23.3334 17.7298 23.3334 15.0218C23.3334 12.3138 22.4292 10.0201 20.6209 8.14068C18.8125 6.26126 16.6056 5.32155 14 5.32155C11.3945 5.32155 9.18754 6.26126 7.37921 8.14068C5.57087 10.0201 4.66671 12.3138 4.66671 15.0218C4.66671 17.7298 5.57087 20.0235 7.37921 21.9029C9.18754 23.7823 11.3945 24.722 14 24.722Z" fill="white"/>
</g>
</svg>