<svg width="28" height="30" viewBox="0 0 28 30" fill="none" xmlns="http://www.w3.org/2000/svg">
<mask id="mask0_765_62" style="mask-type:alpha" maskUnits="userSpaceOnUse" x="0" y="0" width="28" height="30">
<rect y="0.47168" width="28" height="29.1007" fill="#D9D9D9"/>
</mask>
<g mask="url(#mask0_765_62)">
<path d="M13.9999 19.8719L15.6333 18.1744L13.7666 16.2343H18.6666V13.8093H13.7666L15.6333 11.8692L13.9999 10.1717L9.33325 15.0218L13.9999 19.8719ZM13.9999 27.1471C12.386 27.1471 10.8694 26.8288 9.44992 26.1922C8.03047 25.5557 6.79575 24.6917 5.74575 23.6004C4.69575 22.5092 3.8645 21.2259 3.252 19.7507C2.6395 18.2754 2.33325 16.6991 2.33325 15.0218C2.33325 13.3445 2.6395 11.7682 3.252 10.2929C3.8645 8.81768 4.69575 7.53441 5.74575 6.44314C6.79575 5.35186 8.03047 4.48793 9.44992 3.85135C10.8694 3.21477 12.386 2.89648 13.9999 2.89648C15.6138 2.89648 17.1305 3.21477 18.5499 3.85135C19.9694 4.48793 21.2041 5.35186 22.2541 6.44314C23.3041 7.53441 24.1353 8.81768 24.7478 10.2929C25.3603 11.7682 25.6666 13.3445 25.6666 15.0218C25.6666 16.6991 25.3603 18.2754 24.7478 19.7507C24.1353 21.2259 23.3041 22.5092 22.2541 23.6004C21.2041 24.6917 19.9694 25.5557 18.5499 26.1922C17.1305 26.8288 15.6138 27.1471 13.9999 27.1471ZM13.9999 24.722C16.6055 24.722 18.8124 23.7823 20.6208 21.9029C22.4291 20.0235 23.3333 17.7298 23.3333 15.0218C23.3333 12.3138 22.4291 10.0201 20.6208 8.14068C18.8124 6.26126 16.6055 5.32155 13.9999 5.32155C11.3944 5.32155 9.18742 6.26126 7.37909 8.14068C5.57075 10.0201 4.66659 12.3138 4.66659 15.0218C4.66659 17.7298 5.57075 20.0235 7.37909 21.9029C9.18742 23.7823 11.3944 24.722 13.9999 24.722Z" fill="white"/>
</g>
</svg>
