<svg width="28" height="30" viewBox="0 0 28 30" fill="none" xmlns="http://www.w3.org/2000/svg">
<mask id="mask0_742_376" style="mask-type:alpha" maskUnits="userSpaceOnUse" x="0" y="0" width="28" height="30">
<rect width="28" height="29.1007" fill="#D9D9D9"/>
</mask>
<g mask="url(#mask0_742_376)">
<path d="M13.9999 19.4002L15.6333 17.7027L13.7666 15.7626H18.6666V13.3376H13.7666L15.6333 11.3975L13.9999 9.69999L9.33325 14.5501L13.9999 19.4002ZM13.9999 26.6754C12.386 26.6754 10.8694 26.3571 9.44992 25.7206C8.03047 25.084 6.79575 24.22 5.74575 23.1288C4.69575 22.0375 3.8645 20.7542 3.252 19.279C2.6395 17.8037 2.33325 16.2274 2.33325 14.5501C2.33325 12.8728 2.6395 11.2965 3.252 9.82124C3.8645 8.346 4.69575 7.06273 5.74575 5.97146C6.79575 4.88018 8.03047 4.01625 9.44992 3.37967C10.8694 2.74309 12.386 2.4248 13.9999 2.4248C15.6138 2.4248 17.1305 2.74309 18.5499 3.37967C19.9694 4.01625 21.2041 4.88018 22.2541 5.97146C23.3041 7.06273 24.1353 8.346 24.7478 9.82124C25.3603 11.2965 25.6666 12.8728 25.6666 14.5501C25.6666 16.2274 25.3603 17.8037 24.7478 19.279C24.1353 20.7542 23.3041 22.0375 22.2541 23.1288C21.2041 24.22 19.9694 25.084 18.5499 25.7206C17.1305 26.3571 15.6138 26.6754 13.9999 26.6754ZM13.9999 24.2504C16.6055 24.2504 18.8124 23.3106 20.6208 21.4312C22.4291 19.5518 23.3333 17.2581 23.3333 14.5501C23.3333 11.8421 22.4291 9.54842 20.6208 7.669C18.8124 5.78958 16.6055 4.84987 13.9999 4.84987C11.3944 4.84987 9.18742 5.78958 7.37909 7.669C5.57075 9.54842 4.66659 11.8421 4.66659 14.5501C4.66659 17.2581 5.57075 19.5518 7.37909 21.4312C9.18742 23.3106 11.3944 24.2504 13.9999 24.2504Z" fill="white"/>
</g>
</svg>