<svg width="24" height="24" viewBox="0 0 24 24" fill="none" xmlns="http://www.w3.org/2000/svg">
<mask id="mask0_656_86" style="mask-type:alpha" maskUnits="userSpaceOnUse" x="0" y="0" width="24" height="24">
<rect width="24" height="24" fill="#D9D9D9"/>
</mask>
<g mask="url(#mask0_656_86)">
<path d="M5.52496 21C5.07496 21 4.67496 20.8625 4.32496 20.5875C3.97496 20.3125 3.7333 19.9583 3.59996 19.525L1.04996 10.275C0.96663 9.95833 1.0208 9.66667 1.21246 9.4C1.40413 9.13333 1.66663 9 1.99996 9H6.74996L11.15 2.45C11.2333 2.31667 11.35 2.20833 11.5 2.125C11.65 2.04167 11.8083 2 11.975 2C12.1416 2 12.3 2.04167 12.45 2.125C12.6 2.20833 12.7166 2.31667 12.8 2.45L17.2 9H22C22.3333 9 22.5958 9.13333 22.7875 9.4C22.9791 9.66667 23.0333 9.95833 22.95 10.275L20.4 19.525C20.2666 19.9583 20.025 20.3125 19.675 20.5875C19.325 20.8625 18.925 21 18.475 21H5.52496ZM5.49996 19H18.5L20.7 11H3.29996L5.49996 19ZM12 17C12.55 17 13.0208 16.8042 13.4125 16.4125C13.8041 16.0208 14 15.55 14 15C14 14.45 13.8041 13.9792 13.4125 13.5875C13.0208 13.1958 12.55 13 12 13C11.45 13 10.9791 13.1958 10.5875 13.5875C10.1958 13.9792 9.99996 14.45 9.99996 15C9.99996 15.55 10.1958 16.0208 10.5875 16.4125C10.9791 16.8042 11.45 17 12 17ZM9.17496 9H14.8L11.975 4.8L9.17496 9Z" fill="#8E918F"/>
</g>
</svg>